# xmcd CD database file
#
# Track frame offsets:
#	150
#	22716
#	55200
#	90031
#	125580
#	162397
#	190066
#	217418
#	248505
#	261996
#	283443
#
# Disc length: 4273 seconds
#
# Revision: 0
# Processed by: cddbd v1.5PL3 Copyright (c) Steve Scherf et al.
# Submitted via: CDex 1.51
#
DISCID=9a10af0b
DTITLE=University of Wisconsin - Eau Claire Jazz Ensemble I - Hoe Down
DYEAR=1997
DGENRE=Jazz
TTITLE0=Night In Tunisia
TTITLE1=Well You Needn't
TTITLE2=Carmelo's By The Freeway
TTITLE3=Prelude, Fugue and Riffs
TTITLE4=Alabama (Sketches)
TTITLE5=Hoe Down
TTITLE6=Surge
TTITLE7=Bye Bye Blackbird
TTITLE8=Daybreak Express
TTITLE9=Blood Count
TTITLE10=Cherokee
EXTD=YEAR: 1997
EXTT0=
EXTT1=
EXTT2=
EXTT3=
EXTT4=
EXTT5=
EXTT6=
EXTT7=
EXTT8=
EXTT9=
EXTT10=
PLAYORDER=
